<svg xmlns="http://www.w3.org/2000/svg" viewBox="0 0 380.79 85.61"><defs><style>.cls-1{fill:#985723;}.cls-2{fill:none;stroke:#000;stroke-linecap:round;stroke-miterlimit:10;}.cls-3{fill:#da904b;}</style></defs><g id="图层_2" data-name="图层 2"><g id="图层_1-2" data-name="图层 1"><path d="M163.92,39.26a13.14,13.14,0,0,1,4.63-.65q2.92.2,5.84.65a12.81,12.81,0,0,1,3.86,2.26A11.2,11.2,0,0,1,181.34,45a18.64,18.64,0,0,1,2,6.47c.33,2.26.55,8.19.55,17.57v16.6H169.65V71.38c0-6.79,0-11.1-.22-12.93a13,13,0,0,0-.88-4.32,6.3,6.3,0,0,0-5.29-3.66h-.89a8.23,8.23,0,0,0-5.84,2.26l-1.43,1.51V85.61H140.87v-46H155.1v5l2-1.62A20,20,0,0,1,163.92,39.26Z"/><path d="M201.71,38.47a27.13,27.13,0,0,1,6.62-.86,34.2,34.2,0,0,1,13.35,2.8c2.07.86,3,1.51,3,1.83a44.07,44.07,0,0,1-3,8.61h-.1a30.53,30.53,0,0,1-4-1.08,41.82,41.82,0,0,0-9-1.72,5.08,5.08,0,0,0-2.17.54,4.7,4.7,0,0,0-1.63,1.5,2.61,2.61,0,0,0-.33,1.08,1.27,1.27,0,0,0,.22.86,3.25,3.25,0,0,0,1.84,1.83,35.46,35.46,0,0,0,5.32,1.62,30.44,30.44,0,0,1,12.71,5.59c2.17,2,3.25,5.17,3.36,9.58a16.26,16.26,0,0,1-1.19,6.24c-2.06,4.31-5.86,7-11.62,8.18a31.94,31.94,0,0,1-5.86.54,38.88,38.88,0,0,1-16.61-4.09c-1.85-.86-2.72-1.4-2.72-1.72l1.63-4.09,1.85-4.09h.11a52,52,0,0,1,6.29,1.29,37.09,37.09,0,0,0,8.69,1.4c2.06,0,3.47-.43,4.23-1.18A2.8,2.8,0,0,0,213.76,71a3,3,0,0,0-.22-1.18c0-.65-.65-1.29-1.84-1.83a55.07,55.07,0,0,0-6.41-1.83,27.82,27.82,0,0,1-11.18-4.84,12.84,12.84,0,0,1-3.69-10,12.18,12.18,0,0,1,2.49-7.86C194.65,41.27,197.58,39.66,201.71,38.47Z"/><path d="M266,1.92c12.58-1.84,30.41.88,35.38,15,5.29,7.65-6.94,9.83-11.8,12.92-13.53-21.19-36.67-9-34.68,14.16-1.58,24.34,23.25,33.26,35.92,13.19,2.22-1.14,12.46,4.92,13,7.56A24.61,24.61,0,0,1,294.69,79c-9.53,7.4-22.48,7.46-33.87,5.5C223,75.35,227.06,6.63,266,1.92Z"/><path d="M311.87,85V3.13c34.48.31,69-5.43,68.92,38.55.11,47.13-32.57,44.3-68.92,43.68M346,19.9c-4.66-1.23-10.31-.95-15.12-1V70.1c6.52-.31,16.51-.75,20.66-3.74C365.45,56,365.69,23.92,346,19.9Z"/><path d="M128.87,8.5a8.5,8.5,0,1,1-8.5-8.5A8.5,8.5,0,0,1,128.87,8.5Zm-20.5,14c-1.75,1.47-5.09-1.94-6.5-.5-.68.7-.28,2.14,0,3,1.73,5.3,8.24,7.86,8,11-.5,6.5.5,8.5-1.5,30.5-.6,6.62-2.64,9.9-3,13-.27,2.35,1.26,4.78,2,5a4.73,4.73,0,0,0,5-2c1.21-1.66,3-4,5-5s2.31,2.22,4,4c2.35,2.46,7.06,4.63,9,4a2.16,2.16,0,0,0,1.5-1.5,4.36,4.36,0,0,0,0-3c-1.46-4.89-3.16-9.9-3-15,.5-15.5,1.64-36.79-1.5-41.5-2-3-4-1-10-3-4.67-1.56-7-5.58-8-5S110.05,21.1,108.37,22.5Z"/></g><g id="图层_3" data-name="图层 3"><path class="cls-1" d="M59.87,16.3c-3.9-2.9-2.63-10.49-1-11,1.1-.34,2.51,1.47,4,1,1.24-.39.92-1.54,2-2,1.95-.83,7.83,4,7,8S63.72,19.15,59.87,16.3Z"/><path class="cls-1" d="M96.87,22.3a10.61,10.61,0,0,1,2,11,10,10,0,0,1-2,3c-3.69,4.09-6,5-11,5C81.83,41.3,93.67,19.09,96.87,22.3Z"/><path class="cls-2" d="M97.37,27.1a9.32,9.32,0,0,1-2,7,9.07,9.07,0,0,1-5,3"/><path class="cls-2" d="M96.37,36.1c-.66-1-.33-1-1-2"/><path class="cls-1" d="M15.87,85.3a24.56,24.56,0,0,1,8-5c3.29-1.25,6.67-2.53,10-1s6,5,5,6Z"/><path class="cls-1" d="M57.87,80.3c0,2,0,3.31.67,4a3.83,3.83,0,0,0,4.33,1,4,4,0,0,0,2-5h-7"/><path class="cls-3" d="M64.87,80.3c-1-3,0-9,1-14,.11-.55.64-.62,1-1,10.07-10.46,6.42-19.22,13-23,3.24-1.86,3.62-1,6-1,1,0,4.53-.09,5-2,1-4,0-3,2-7,1.12-2.24,5.45-8.45,4-10s-13-15-30-13c-10,1.18-8,12-22,15-10.71,2.29-15.21,2.35-23,6C9,36.33-3.45,53.23.87,68.3c3,10.44,13.6,17,15,17l21-4c4,0,7.15-1.88,11-4,3.61-2,5.63-3.53,8-4s1.4,4,2,7"/><path d="M70.87,14.3c.81-.92,4.37.09,5,2a1.26,1.26,0,0,1,0,1c-.48.89-2.69,1.08-4,0C70.89,16.49,70.34,14.91,70.87,14.3Z"/></g></g></svg>